<?xml version="1.0" encoding="utf-8"?>
<!-- Generator: Adobe Illustrator 23.0.1, SVG Export Plug-In . SVG Version: 6.00 Build 0)  -->
<svg version="1.1" id="Layer_1" xmlns="http://www.w3.org/2000/svg" xmlns:xlink="http://www.w3.org/1999/xlink" x="0px" y="0px"
	 viewBox="0 0 512 512" style="enable-background:new 0 0 512 512;" xml:space="preserve">
<style type="text/css">
	.st0{fill:#0078BC;}
	.st1{fill:#00AAE2;}
	.st2{fill:#4A9F40;}
	.st3{fill:#73BF69;}
	.st4{fill:#9DD695;}
</style>
<path class="st0" d="M500.6,140v232.4c-0.1,1.8-0.6,3.6-1.5,5.1c-0.9,1.4-2.1,2.6-3.6,3.5l0,0L261.1,510.8c-1.5,0.8-3.2,1.2-4.9,1.2
	V269.2l154-85.3h0l88.8-49.2C500,136.2,500.6,138.1,500.6,140z"/>
<path class="st1" d="M499,377.5c-0.9,1.4-2.1,2.6-3.6,3.5l0,0L261.1,510.8c-1.5,0.8-3.2,1.2-4.9,1.2v-88.8l88.1-48.8l65.9-36.5
	L499,377.5z"/>
<path class="st1" d="M256.3,269.2V512c-1.7,0-3.3-0.4-4.9-1.2L17.1,381c-1.5-0.9-2.7-2.1-3.6-3.5c-1-1.6-1.5-3.5-1.5-5.4V140
	c0-1.9,0.5-3.7,1.4-5.3l88.8,49.2l0,0L256.3,269.2z"/>
<path class="st1" d="M102.3,183.9v154h0l-88.7,39.6c-1-1.6-1.5-3.5-1.5-5.4V140c0-1.9,0.5-3.7,1.5-5.3L102.3,183.9L102.3,183.9z"/>
<path class="st1" d="M499.1,134.7l-88.8,49.2h0l-154,85.3l-154-85.3l0,0l-88.8-49.2c0.9-1.5,2.2-2.8,3.7-3.7L251.4,1.2
	c1.5-0.8,3.2-1.2,4.9-1.2s3.3,0.4,4.9,1.2L495.4,131C496.9,131.9,498.2,133.2,499.1,134.7z"/>
<path class="st0" d="M499.1,134.7l-88.8,49.2h0l-154-85.3V0c1.7,0,3.3,0.4,4.9,1.2L495.4,131C496.9,131.9,498.2,133.2,499.1,134.7z"
	/>
<path class="st2" d="M413.8,188.4v145c0,3.8-2.1,7.4-5.4,9.3l-147.1,81.5c-1.6,0.8-3.3,1.2-5,1.2v-156l156-86.4
	C413.2,184.6,413.8,186.4,413.8,188.4z"/>
<path class="st3" d="M256.3,269.4v156c-1.7,0-3.4-0.4-5-1.2l-147.1-81.5c-3.3-1.9-5.4-5.4-5.4-9.2v-145c0-1.9,0.5-3.8,1.5-5.4
	L256.3,269.4z"/>
<g>
	<path class="st4" d="M412,183l-156,86.4L100,183c0.9-1.6,2.3-2.9,4-3.8l146.9-81.4c3.1-1.7,6.8-1.7,9.9-0.2L365,155.3l43.1,23.9
		C409.7,180,411.1,181.4,412,183z"/>
	<path class="st4" d="M365.9,337.6c-2.8,0-5.5-1.5-7-4.1c-2.1-3.8-0.7-8.7,3.1-10.8l18.7-10.4c3.8-2.1,8.7-0.7,10.8,3.1
		c2.1,3.8,0.7,8.7-3.1,10.8l-18.7,10.4C368.5,337.2,367.2,337.6,365.9,337.6z"/>
	<path class="st4" d="M365.9,315c-2.8,0-5.5-1.5-7-4.1c-2.1-3.8-0.7-8.7,3.1-10.8l18.7-10.4c3.8-2.1,8.7-0.7,10.8,3.1
		s0.7,8.7-3.1,10.8L369.7,314C368.5,314.7,367.2,315,365.9,315z"/>
</g>
<path class="st4" d="M365.9,292c-2.8,0-5.5-1.5-7-4.1c-2.1-3.8-0.7-8.7,3.1-10.8l18.7-10.4c3.8-2.1,8.7-0.7,10.8,3.1
	s0.7,8.7-3.1,10.8L369.7,291C368.5,291.7,367.2,292,365.9,292z"/>
</svg>
